<svg width="254" height="236" viewBox="0 0 254 236" fill="none" xmlns="http://www.w3.org/2000/svg">
<rect width="254" height="236" fill="#2C2C2C"/>
<mask id="mask0_85_2" style="mask-type:alpha" maskUnits="userSpaceOnUse" x="0" y="0" width="254" height="236">
<path d="M0 35C0 15.67 15.67 0 35 0H219C238.33 0 254 15.67 254 35V201C254 220.33 238.33 236 219 236H35C15.67 236 0 220.33 0 201V35Z" fill="#D9D9D9"/>
<path d="M0 0H37V236H0V0Z" fill="#D9D9D9"/>
<path d="M0 0H254V130H0V0Z" fill="#D9D9D9"/>
</mask>
<g mask="url(#mask0_85_2)">
<rect width="254" height="236" fill="black"/>
<rect width="254" height="29" fill="black"/>
<rect width="254" height="10" fill="#4CE6CD"/>
<rect y="30" width="254" height="60" fill="url(#paint0_linear_85_2)" fill-opacity="0.65"/>
<rect y="117" width="254" height="119" fill="url(#paint1_linear_85_2)" fill-opacity="0.65"/>
<path d="M8.72 25V17.98H5.3V16H14.54V17.98H11.12V25H8.72ZM21.908 22.072H16.76V22.12C16.76 22.576 16.856 22.888 17.06 23.032C17.252 23.188 17.6 23.26 18.092 23.26H21.74V25H18.224C17.516 25 16.916 24.928 16.436 24.772C15.956 24.616 15.56 24.4 15.272 24.112C14.984 23.824 14.768 23.488 14.636 23.08C14.504 22.684 14.444 22.24 14.444 21.76V20.848C14.444 19.9 14.72 19.144 15.272 18.568C15.824 17.992 16.724 17.704 17.984 17.704H18.464C19.136 17.704 19.688 17.788 20.144 17.944C20.588 18.112 20.936 18.34 21.2 18.628C21.464 18.916 21.644 19.264 21.752 19.672C21.848 20.08 21.908 20.536 21.908 21.028V22.072ZM18.728 19.312H17.792C17.408 19.312 17.132 19.396 16.988 19.564C16.832 19.732 16.76 20.02 16.76 20.404V20.56H19.748V20.404C19.748 20.02 19.664 19.732 19.508 19.564C19.352 19.396 19.088 19.312 18.728 19.312ZM29.9146 21.1V25H24.9826C24.2626 25 23.7106 24.844 23.3266 24.532C22.9426 24.22 22.7506 23.812 22.7506 23.308C22.7506 22.756 22.9306 22.324 23.3146 21.988C23.6866 21.652 24.1426 21.304 24.6706 20.944L26.7106 19.54H22.9186V17.8H26.0746C27.4426 17.8 28.4266 18.1 29.0266 18.676C29.6146 19.252 29.9146 20.068 29.9146 21.1ZM25.6306 23.26H27.7546V20.872L25.5826 22.564C25.4386 22.672 25.3426 22.756 25.2946 22.804C25.2346 22.852 25.2106 22.924 25.2106 22.996C25.2106 23.092 25.2346 23.152 25.3066 23.2C25.3666 23.248 25.4746 23.26 25.6306 23.26ZM31.3015 25V17.8H39.8455C40.9375 17.8 41.7295 18.064 42.2215 18.592C42.7015 19.12 42.9535 19.84 42.9535 20.74V25H40.6735V20.68C40.6735 20.32 40.6015 20.056 40.4815 19.9C40.3615 19.744 40.1215 19.66 39.7735 19.66H38.2615V25H35.9815V19.66H33.5815V25H31.3015ZM55.963 25H53.275L50.887 22.252C50.683 22.024 50.539 21.796 50.467 21.568C50.383 21.352 50.347 21.148 50.347 20.968C50.347 20.584 50.467 20.284 50.707 20.08C50.947 19.876 51.271 19.768 51.679 19.768H52.867C53.131 19.768 53.323 19.696 53.455 19.552C53.575 19.408 53.647 19.216 53.647 18.988V18.592C53.647 18.352 53.575 18.172 53.455 18.04C53.335 17.92 53.131 17.848 52.843 17.848H49.723V25H47.323V16H52.603C53.755 16 54.619 16.192 55.171 16.576C55.723 16.96 55.999 17.584 55.999 18.436V18.952C55.999 19.336 55.915 19.672 55.771 19.96C55.615 20.248 55.411 20.5 55.159 20.692C54.907 20.896 54.607 21.052 54.271 21.16C53.935 21.268 53.575 21.316 53.203 21.316H52.915L55.963 25ZM63.7584 21.1V25H58.8264C58.1064 25 57.5544 24.844 57.1704 24.532C56.7864 24.22 56.5944 23.812 56.5944 23.308C56.5944 22.756 56.7744 22.324 57.1584 21.988C57.5304 21.652 57.9864 21.304 58.5144 20.944L60.5544 19.54H56.7624V17.8H59.9184C61.2864 17.8 62.2704 18.1 62.8704 18.676C63.4584 19.252 63.7584 20.068 63.7584 21.1ZM59.4744 23.26H61.5984V20.872L59.4264 22.564C59.2824 22.672 59.1864 22.756 59.1384 22.804C59.0784 22.852 59.0544 22.924 59.0544 22.996C59.0544 23.092 59.0784 23.152 59.1504 23.2C59.2104 23.248 59.3184 23.26 59.4744 23.26ZM72.8492 16V25H67.7372C66.8492 25 66.1532 24.712 65.6492 24.112C65.1452 23.524 64.8932 22.744 64.8932 21.76V21.04C64.8932 20.068 65.1452 19.288 65.6492 18.688C66.1532 18.1 66.8492 17.8 67.7372 17.8H70.5692V16H72.8492ZM68.5172 23.224H70.5692V19.576H68.5172C68.0252 19.576 67.6892 19.696 67.5092 19.912C67.3172 20.14 67.2332 20.488 67.2332 20.956V21.904C67.2332 22.384 67.3172 22.72 67.5092 22.924C67.6892 23.128 68.0252 23.224 68.5172 23.224ZM76.663 17.176H74.383V15.76H76.663V17.176ZM74.383 25V17.8H76.663V25H74.383ZM85.7839 20.968V21.832C85.7839 22.84 85.4719 23.632 84.8719 24.232C84.2719 24.832 83.4079 25.12 82.2919 25.12H81.4519C80.3239 25.12 79.4599 24.832 78.8599 24.232C78.2479 23.632 77.9479 22.84 77.9479 21.832V20.968C77.9479 19.972 78.2479 19.18 78.8599 18.58C79.4599 17.98 80.3239 17.68 81.4519 17.68H82.2919C83.4079 17.68 84.2719 17.98 84.8719 18.58C85.4719 19.18 85.7839 19.972 85.7839 20.968ZM83.4439 20.776C83.4439 20.32 83.3479 19.972 83.1799 19.744C83.0119 19.516 82.6999 19.396 82.2679 19.396H81.4759C81.0319 19.396 80.7199 19.516 80.5519 19.744C80.3719 19.972 80.2879 20.32 80.2879 20.776V22.012C80.2879 22.492 80.3719 22.84 80.5519 23.068C80.7199 23.296 81.0319 23.404 81.4759 23.404H82.2679C82.6999 23.404 83.0119 23.296 83.1799 23.068C83.3479 22.84 83.4439 22.492 83.4439 22.012V20.776Z" fill="white"/>
<path d="M9.78 108V99H12.18V102.408H16.44V99H18.84V108H16.44V104.508H12.18V108H9.78ZM27.1412 104.1V108H22.2092C21.4892 108 20.9372 107.844 20.5532 107.532C20.1692 107.22 19.9772 106.812 19.9772 106.308C19.9772 105.756 20.1572 105.324 20.5412 104.988C20.9132 104.652 21.3692 104.304 21.8972 103.944L23.9372 102.54H20.1452V100.8H23.3012C24.6692 100.8 25.6532 101.1 26.2532 101.676C26.8412 102.252 27.1412 103.068 27.1412 104.1ZM22.8572 106.26H24.9812V103.872L22.8092 105.564C22.6652 105.672 22.5692 105.756 22.5212 105.804C22.4612 105.852 22.4372 105.924 22.4372 105.996C22.4372 106.092 22.4612 106.152 22.5332 106.2C22.5932 106.248 22.7012 106.26 22.8572 106.26ZM28.528 108V100.8H37.072C38.164 100.8 38.956 101.064 39.448 101.592C39.928 102.12 40.18 102.84 40.18 103.74V108H37.9V103.68C37.9 103.32 37.828 103.056 37.708 102.9C37.588 102.744 37.348 102.66 37 102.66H35.488V108H33.208V102.66H30.808V108H28.528Z" fill="white"/>
<rect x="117.188" y="40" width="3.62443" height="39.2119" rx="1.81221" fill="#4CE6CD"/>
<rect x="110.969" y="53.5732" width="3.62443" height="12.0652" rx="1.81221" fill="#4CE6CD"/>
<rect x="104.75" y="46.0322" width="3.62443" height="27.9008" rx="1.81221" fill="#4CE6CD"/>
<rect x="98.5312" y="49.0488" width="3.62443" height="21.8682" rx="1.81221" fill="#4CE6CD"/>
<rect x="92.3125" y="52.8193" width="3.62443" height="14.3274" rx="1.81221" fill="#4CE6CD"/>
<rect x="86.0938" y="46.7871" width="3.62443" height="26.3926" rx="1.81221" fill="#4CE6CD"/>
<rect x="79.875" y="49.8037" width="3.62443" height="20.36" rx="1.81221" fill="#4CE6CD"/>
<rect x="73.6562" y="54.3271" width="3.62443" height="11.3111" rx="1.81221" fill="#4CE6CD"/>
<rect x="67.4375" y="55.8359" width="3.62443" height="8.29483" rx="1.81221" fill="#4CE6CD"/>
<rect x="61.2188" y="51.3105" width="3.62443" height="17.3437" rx="1.81221" fill="#4CE6CD"/>
<rect x="55" y="55.082" width="3.62443" height="9.80298" rx="1.81221" fill="#4CE6CD"/>
<rect x="123.406" y="45.2783" width="3.62443" height="28.6549" rx="1.81221" fill="#4CE6CD"/>
<rect x="129.625" y="40.7539" width="3.62443" height="37.7038" rx="1.81221" fill="#4CE6CD"/>
<rect x="135.844" y="53.5732" width="3.62443" height="12.0652" rx="1.81221" fill="#4CE6CD"/>
<rect x="142.062" y="46.0322" width="3.62443" height="27.1467" rx="1.81221" fill="#4CE6CD"/>
<rect x="148.281" y="49.0488" width="3.62443" height="21.1141" rx="1.81221" fill="#4CE6CD"/>
<rect x="154.5" y="53.5732" width="3.62443" height="12.0652" rx="1.81221" fill="#4CE6CD"/>
<rect x="160.719" y="45.2783" width="3.62443" height="28.6549" rx="1.81221" fill="#4CE6CD"/>
<rect x="166.938" y="48.2949" width="3.62443" height="22.6223" rx="1.81221" fill="#4CE6CD"/>
<rect x="173.156" y="53.5732" width="3.62443" height="13.5734" rx="1.81221" fill="#4CE6CD"/>
<rect x="179.375" y="56.5889" width="3.62443" height="7.54076" rx="1.81221" fill="#4CE6CD"/>
<rect y="94" width="5" height="19" fill="#4CE6CD"/>
<path d="M14.29 128.75C13.831 129.695 13.534 130.586 13.372 131.423C13.21 132.26 13.156 133.151 13.156 134.096V136.283H8.566V134.393C8.566 133.259 8.728 132.26 9.052 131.396C9.376 130.532 9.862 129.641 10.51 128.75H14.29ZM20.23 128.75C19.771 129.695 19.474 130.586 19.312 131.423C19.15 132.26 19.096 133.151 19.096 134.096V136.283H14.506V134.393C14.506 133.259 14.668 132.26 14.992 131.396C15.316 130.532 15.802 129.641 16.45 128.75H20.23ZM23.1019 149V128.75H28.5019V149H23.1019ZM38.7577 149V133.205H31.0627V128.75H51.8527V133.205H44.1577V149H38.7577ZM63.4368 141.467L58.5768 140.036C56.6868 139.496 55.3098 138.713 54.4188 137.741C53.5007 136.769 53.0688 135.608 53.0688 134.258C53.0688 132.584 53.6628 131.234 54.8508 130.235C56.0388 129.263 57.7128 128.75 59.8728 128.75H70.2678V133.205H59.8458C59.2518 133.205 58.8467 133.313 58.6308 133.529C58.3878 133.745 58.2798 133.961 58.2798 134.204C58.2798 134.528 58.3878 134.798 58.6038 135.014C58.8198 135.23 59.1978 135.392 59.7108 135.527L64.6518 136.958C66.7308 137.579 68.2968 138.335 69.3498 139.226C70.4028 140.117 70.9428 141.359 70.9428 142.952C70.9428 143.789 70.7808 144.572 70.4568 145.301C70.1328 146.057 69.6738 146.678 69.0258 147.218C68.3778 147.758 67.5678 148.19 66.5957 148.514C65.6238 148.838 64.4628 149 63.1668 149H53.6088V144.545H63.9768C64.6518 144.545 65.1378 144.41 65.4078 144.14C65.6778 143.87 65.8128 143.573 65.8128 143.195C65.8128 142.763 65.6238 142.439 65.2998 142.223C64.9758 142.007 64.3548 141.737 63.4368 141.467ZM80.2628 149V128.75H85.6628V136.418H95.2478V128.75H100.648V149H95.2478V141.143H85.6628V149H80.2628ZM120.675 149L119.082 144.761H109.605L107.985 149H102.531L109.254 132.665C109.767 131.396 110.415 130.37 111.171 129.587C111.927 128.831 113.007 128.426 114.357 128.426C115.761 128.426 116.841 128.831 117.651 129.587C118.461 130.343 119.109 131.369 119.622 132.611L126.291 149H120.675ZM113.898 133.637L111.225 140.576H117.489L114.87 133.637C114.816 133.529 114.735 133.421 114.681 133.313C114.627 133.205 114.519 133.151 114.384 133.151C114.249 133.151 114.141 133.205 114.087 133.286C114.006 133.394 113.952 133.502 113.898 133.637ZM127.497 149L128.766 134.528C128.928 132.368 129.522 130.829 130.521 129.857C131.52 128.912 132.789 128.426 134.328 128.426C135.948 128.426 137.244 128.939 138.216 129.938C139.188 130.937 139.809 132.287 140.079 134.015L141.672 144.086C141.699 144.302 141.753 144.464 141.834 144.572C141.915 144.68 142.05 144.734 142.239 144.734C142.401 144.734 142.536 144.68 142.644 144.545C142.725 144.437 142.779 144.248 142.806 144.032L144.345 133.988C144.588 132.287 145.182 130.937 146.154 129.938C147.126 128.939 148.422 128.426 150.042 128.426C151.743 128.426 153.012 128.912 153.849 129.884C154.686 130.856 155.199 132.395 155.388 134.528L156.657 149H151.446L150.366 133.745C150.339 133.583 150.312 133.421 150.258 133.286C150.204 133.178 150.096 133.097 149.934 133.097C149.772 133.097 149.664 133.178 149.583 133.286C149.475 133.394 149.421 133.529 149.421 133.691L147.612 144.518C147.369 145.976 146.775 147.137 145.857 148.001C144.939 148.892 143.724 149.324 142.212 149.324C140.646 149.324 139.377 148.892 138.459 147.974C137.514 147.056 136.92 145.895 136.704 144.491L134.814 133.718C134.76 133.529 134.706 133.367 134.625 133.259C134.517 133.151 134.409 133.097 134.274 133.097C134.085 133.097 133.95 133.178 133.896 133.286C133.842 133.421 133.788 133.583 133.788 133.772L132.708 149H127.497ZM158.821 149L160.09 134.528C160.252 132.368 160.846 130.829 161.845 129.857C162.844 128.912 164.113 128.426 165.652 128.426C167.272 128.426 168.568 128.939 169.54 129.938C170.512 130.937 171.133 132.287 171.403 134.015L172.996 144.086C173.023 144.302 173.077 144.464 173.158 144.572C173.239 144.68 173.374 144.734 173.563 144.734C173.725 144.734 173.86 144.68 173.968 144.545C174.049 144.437 174.103 144.248 174.13 144.032L175.669 133.988C175.912 132.287 176.506 130.937 177.478 129.938C178.45 128.939 179.746 128.426 181.366 128.426C183.067 128.426 184.336 128.912 185.173 129.884C186.01 130.856 186.523 132.395 186.712 134.528L187.981 149H182.77L181.69 133.745C181.663 133.583 181.636 133.421 181.582 133.286C181.528 133.178 181.42 133.097 181.258 133.097C181.096 133.097 180.988 133.178 180.907 133.286C180.799 133.394 180.745 133.529 180.745 133.691L178.936 144.518C178.693 145.976 178.099 147.137 177.181 148.001C176.263 148.892 175.048 149.324 173.536 149.324C171.97 149.324 170.701 148.892 169.783 147.974C168.838 147.056 168.244 145.895 168.028 144.491L166.138 133.718C166.084 133.529 166.03 133.367 165.949 133.259C165.841 133.151 165.733 133.097 165.598 133.097C165.409 133.097 165.274 133.178 165.22 133.286C165.166 133.421 165.112 133.583 165.112 133.772L164.032 149H158.821ZM190.82 149V128.75H207.722V133.205H196.085V136.715H207.722V141.035H196.085V144.545H207.722V149H190.82ZM215.338 149H210.208V138.902C210.208 138.416 210.37 138.011 210.694 137.687C211.018 137.39 211.396 137.228 211.855 137.228H221.926C222.655 137.228 223.168 137.12 223.438 136.877C223.708 136.661 223.87 136.121 223.87 135.257V135.122C223.87 134.339 223.708 133.826 223.438 133.583C223.168 133.34 222.655 133.205 221.926 133.205H204.808V128.75H221.791C222.763 128.75 223.708 128.831 224.626 128.993C225.517 129.155 226.3 129.452 226.948 129.83C227.596 130.235 228.136 130.775 228.541 131.45C228.919 132.125 229.135 132.962 229.135 133.988V135.257C229.135 136.337 228.946 137.255 228.622 137.957C228.271 138.659 227.785 139.226 227.164 139.631C226.543 140.063 225.787 140.36 224.896 140.522C223.978 140.684 223.006 140.765 221.926 140.765H221.629L229.108 149H222.79L215.338 140.873V149ZM15.37 181V165.205H7.675V160.75H28.465V165.205H20.77V181H15.37ZM31.0384 181V160.75H36.4384V181H31.0384ZM39.4042 181L40.6732 166.528C40.8352 164.368 41.4292 162.829 42.4282 161.857C43.4272 160.912 44.6962 160.426 46.2352 160.426C47.8552 160.426 49.1512 160.939 50.1232 161.938C51.0952 162.937 51.7162 164.287 51.9862 166.015L53.5792 176.086C53.6062 176.302 53.6602 176.464 53.7412 176.572C53.8222 176.68 53.9572 176.734 54.1462 176.734C54.3082 176.734 54.4432 176.68 54.5512 176.545C54.6322 176.437 54.6862 176.248 54.7132 176.032L56.2522 165.988C56.4952 164.287 57.0892 162.937 58.0612 161.938C59.0332 160.939 60.3292 160.426 61.9492 160.426C63.6502 160.426 64.9192 160.912 65.7562 161.884C66.5932 162.856 67.1062 164.395 67.2952 166.528L68.5642 181H63.3532L62.2732 165.745C62.2462 165.583 62.2192 165.421 62.1652 165.286C62.1112 165.178 62.0032 165.097 61.8412 165.097C61.6792 165.097 61.5712 165.178 61.4902 165.286C61.3822 165.394 61.3282 165.529 61.3282 165.691L59.5192 176.518C59.2762 177.976 58.6822 179.137 57.7642 180.001C56.8462 180.892 55.6312 181.324 54.1192 181.324C52.5532 181.324 51.2842 180.892 50.3662 179.974C49.4212 179.056 48.8272 177.895 48.6112 176.491L46.7212 165.718C46.6672 165.529 46.6132 165.367 46.5322 165.259C46.4242 165.151 46.3162 165.097 46.1812 165.097C45.9922 165.097 45.8572 165.178 45.8032 165.286C45.7492 165.421 45.6952 165.583 45.6952 165.772L44.6152 181H39.4042ZM71.4034 181V160.75H88.3054V165.205H76.6684V168.715H88.3054V173.035H76.6684V176.545H88.3054V181H71.4034ZM96.7577 168.283C97.1897 167.365 97.4867 166.474 97.6487 165.637C97.8107 164.8 97.8917 163.909 97.8917 162.937V160.75H102.482V162.64C102.482 163.774 102.32 164.8 101.996 165.664C101.672 166.528 101.186 167.419 100.538 168.283H96.7577ZM90.8177 168.283C91.2497 167.365 91.5467 166.474 91.7087 165.637C91.8707 164.8 91.9517 163.909 91.9517 162.937V160.75H96.5417V162.64C96.5417 163.774 96.3797 164.8 96.0557 165.664C95.7317 166.528 95.2457 167.419 94.5977 168.283H90.8177Z" fill="#4CE6CD"/>
</g>
<defs>
<linearGradient id="paint0_linear_85_2" x1="0" y1="60" x2="254" y2="60" gradientUnits="userSpaceOnUse">
<stop stop-color="#222222"/>
<stop offset="0.51"/>
<stop offset="1" stop-color="#222222"/>
</linearGradient>
<linearGradient id="paint1_linear_85_2" x1="0" y1="176.5" x2="254" y2="176.5" gradientUnits="userSpaceOnUse">
<stop stop-color="#222222"/>
<stop offset="0.51"/>
<stop offset="1" stop-color="#222222"/>
</linearGradient>
</defs>
</svg>
