<svg width="272" height="254" viewBox="0 0 272 254" fill="none" xmlns="http://www.w3.org/2000/svg">
<rect width="272" height="254" fill="#2C2C2C"/>
<path d="M9 4.5H4.5V9V44V139V143.5V210V245V249.5H9H44H46H50.5H228C249.815 249.5 267.5 231.815 267.5 210V143.5V139V44V9V4.5H263H228H50.5H46H44H9Z" fill="#D9D9D9" stroke="white" stroke-width="9"/>
<mask id="mask0_85_2" style="mask-type:alpha" maskUnits="userSpaceOnUse" x="9" y="9" width="254" height="236">
<path d="M9 44C9 24.67 24.67 9 44 9H228C247.33 9 263 24.67 263 44V210C263 229.33 247.33 245 228 245H44C24.67 245 9 229.33 9 210V44Z" fill="#D9D9D9"/>
<path d="M9 9H46V245H9V9Z" fill="#D9D9D9"/>
<path d="M9 9H263V139H9V9Z" fill="#D9D9D9"/>
</mask>
<g mask="url(#mask0_85_2)">
<rect x="9" y="9" width="254" height="236" fill="black"/>
<rect x="9" y="9" width="254" height="29" fill="black"/>
<rect x="9" y="9" width="254" height="10" fill="#4CE6CD"/>
<rect x="9" y="39" width="254" height="60" fill="url(#paint0_linear_85_2)"/>
<rect x="9" y="126" width="254" height="119" fill="url(#paint1_linear_85_2)"/>
<path d="M17.72 34V26.98H14.3V25H23.54V26.98H20.12V34H17.72ZM30.908 31.072H25.76V31.12C25.76 31.576 25.856 31.888 26.06 32.032C26.252 32.188 26.6 32.26 27.092 32.26H30.74V34H27.224C26.516 34 25.916 33.928 25.436 33.772C24.956 33.616 24.56 33.4 24.272 33.112C23.984 32.824 23.768 32.488 23.636 32.08C23.504 31.684 23.444 31.24 23.444 30.76V29.848C23.444 28.9 23.72 28.144 24.272 27.568C24.824 26.992 25.724 26.704 26.984 26.704H27.464C28.136 26.704 28.688 26.788 29.144 26.944C29.588 27.112 29.936 27.34 30.2 27.628C30.464 27.916 30.644 28.264 30.752 28.672C30.848 29.08 30.908 29.536 30.908 30.028V31.072ZM27.728 28.312H26.792C26.408 28.312 26.132 28.396 25.988 28.564C25.832 28.732 25.76 29.02 25.76 29.404V29.56H28.748V29.404C28.748 29.02 28.664 28.732 28.508 28.564C28.352 28.396 28.088 28.312 27.728 28.312ZM38.9146 30.1V34H33.9826C33.2626 34 32.7106 33.844 32.3266 33.532C31.9426 33.22 31.7506 32.812 31.7506 32.308C31.7506 31.756 31.9306 31.324 32.3146 30.988C32.6866 30.652 33.1426 30.304 33.6706 29.944L35.7106 28.54H31.9186V26.8H35.0746C36.4426 26.8 37.4266 27.1 38.0266 27.676C38.6146 28.252 38.9146 29.068 38.9146 30.1ZM34.6306 32.26H36.7546V29.872L34.5826 31.564C34.4386 31.672 34.3426 31.756 34.2946 31.804C34.2346 31.852 34.2106 31.924 34.2106 31.996C34.2106 32.092 34.2346 32.152 34.3066 32.2C34.3666 32.248 34.4746 32.26 34.6306 32.26ZM40.3015 34V26.8H48.8455C49.9375 26.8 50.7295 27.064 51.2215 27.592C51.7015 28.12 51.9535 28.84 51.9535 29.74V34H49.6735V29.68C49.6735 29.32 49.6015 29.056 49.4815 28.9C49.3615 28.744 49.1215 28.66 48.7735 28.66H47.2615V34H44.9815V28.66H42.5815V34H40.3015ZM64.963 34H62.275L59.887 31.252C59.683 31.024 59.539 30.796 59.467 30.568C59.383 30.352 59.347 30.148 59.347 29.968C59.347 29.584 59.467 29.284 59.707 29.08C59.947 28.876 60.271 28.768 60.679 28.768H61.867C62.131 28.768 62.323 28.696 62.455 28.552C62.575 28.408 62.647 28.216 62.647 27.988V27.592C62.647 27.352 62.575 27.172 62.455 27.04C62.335 26.92 62.131 26.848 61.843 26.848H58.723V34H56.323V25H61.603C62.755 25 63.619 25.192 64.171 25.576C64.723 25.96 64.999 26.584 64.999 27.436V27.952C64.999 28.336 64.915 28.672 64.771 28.96C64.615 29.248 64.411 29.5 64.159 29.692C63.907 29.896 63.607 30.052 63.271 30.16C62.935 30.268 62.575 30.316 62.203 30.316H61.915L64.963 34ZM72.7584 30.1V34H67.8264C67.1064 34 66.5544 33.844 66.1704 33.532C65.7864 33.22 65.5944 32.812 65.5944 32.308C65.5944 31.756 65.7744 31.324 66.1584 30.988C66.5304 30.652 66.9864 30.304 67.5144 29.944L69.5544 28.54H65.7624V26.8H68.9184C70.2864 26.8 71.2704 27.1 71.8704 27.676C72.4584 28.252 72.7584 29.068 72.7584 30.1ZM68.4744 32.26H70.5984V29.872L68.4264 31.564C68.2824 31.672 68.1864 31.756 68.1384 31.804C68.0784 31.852 68.0544 31.924 68.0544 31.996C68.0544 32.092 68.0784 32.152 68.1504 32.2C68.2104 32.248 68.3184 32.26 68.4744 32.26ZM81.8492 25V34H76.7372C75.8492 34 75.1532 33.712 74.6492 33.112C74.1452 32.524 73.8932 31.744 73.8932 30.76V30.04C73.8932 29.068 74.1452 28.288 74.6492 27.688C75.1532 27.1 75.8492 26.8 76.7372 26.8H79.5692V25H81.8492ZM77.5172 32.224H79.5692V28.576H77.5172C77.0252 28.576 76.6892 28.696 76.5092 28.912C76.3172 29.14 76.2332 29.488 76.2332 29.956V30.904C76.2332 31.384 76.3172 31.72 76.5092 31.924C76.6892 32.128 77.0252 32.224 77.5172 32.224ZM85.663 26.176H83.383V24.76H85.663V26.176ZM83.383 34V26.8H85.663V34H83.383ZM94.7839 29.968V30.832C94.7839 31.84 94.4719 32.632 93.8719 33.232C93.2719 33.832 92.4079 34.12 91.2919 34.12H90.4519C89.3239 34.12 88.4599 33.832 87.8599 33.232C87.2479 32.632 86.9479 31.84 86.9479 30.832V29.968C86.9479 28.972 87.2479 28.18 87.8599 27.58C88.4599 26.98 89.3239 26.68 90.4519 26.68H91.2919C92.4079 26.68 93.2719 26.98 93.8719 27.58C94.4719 28.18 94.7839 28.972 94.7839 29.968ZM92.4439 29.776C92.4439 29.32 92.3479 28.972 92.1799 28.744C92.0119 28.516 91.6999 28.396 91.2679 28.396H90.4759C90.0319 28.396 89.7199 28.516 89.5519 28.744C89.3719 28.972 89.2879 29.32 89.2879 29.776V31.012C89.2879 31.492 89.3719 31.84 89.5519 32.068C89.7199 32.296 90.0319 32.404 90.4759 32.404H91.2679C91.6999 32.404 92.0119 32.296 92.1799 32.068C92.3479 31.84 92.4439 31.492 92.4439 31.012V29.776Z" fill="white"/>
<path d="M18.78 117V108H21.18V111.408H25.44V108H27.84V117H25.44V113.508H21.18V117H18.78ZM36.1412 113.1V117H31.2092C30.4892 117 29.9372 116.844 29.5532 116.532C29.1692 116.22 28.9772 115.812 28.9772 115.308C28.9772 114.756 29.1572 114.324 29.5412 113.988C29.9132 113.652 30.3692 113.304 30.8972 112.944L32.9372 111.54H29.1452V109.8H32.3012C33.6692 109.8 34.6532 110.1 35.2532 110.676C35.8412 111.252 36.1412 112.068 36.1412 113.1ZM31.8572 115.26H33.9812V112.872L31.8092 114.564C31.6652 114.672 31.5692 114.756 31.5212 114.804C31.4612 114.852 31.4372 114.924 31.4372 114.996C31.4372 115.092 31.4612 115.152 31.5332 115.2C31.5932 115.248 31.7012 115.26 31.8572 115.26ZM37.528 117V109.8H46.072C47.164 109.8 47.956 110.064 48.448 110.592C48.928 111.12 49.18 111.84 49.18 112.74V117H46.9V112.68C46.9 112.32 46.828 112.056 46.708 111.9C46.588 111.744 46.348 111.66 46 111.66H44.488V117H42.208V111.66H39.808V117H37.528Z" fill="white"/>
<rect x="124.188" y="49" width="3.62443" height="39.2119" rx="1.81221" fill="#4CE6CD"/>
<rect x="117.969" y="62.5732" width="3.62443" height="12.0652" rx="1.81221" fill="#4CE6CD"/>
<rect x="111.75" y="55.0322" width="3.62443" height="27.9008" rx="1.81221" fill="#4CE6CD"/>
<rect x="105.531" y="58.0488" width="3.62443" height="21.8682" rx="1.81221" fill="#4CE6CD"/>
<rect x="99.3125" y="61.8193" width="3.62443" height="14.3274" rx="1.81221" fill="#4CE6CD"/>
<rect x="93.0938" y="55.7871" width="3.62443" height="26.3926" rx="1.81221" fill="#4CE6CD"/>
<rect x="86.875" y="58.8037" width="3.62443" height="20.36" rx="1.81221" fill="#4CE6CD"/>
<rect x="80.6562" y="63.3271" width="3.62443" height="11.3111" rx="1.81221" fill="#4CE6CD"/>
<rect x="74.4375" y="64.8359" width="3.62443" height="8.29483" rx="1.81221" fill="#4CE6CD"/>
<rect x="68.2188" y="60.3105" width="3.62443" height="17.3437" rx="1.81221" fill="#4CE6CD"/>
<rect x="62" y="64.082" width="3.62443" height="9.80298" rx="1.81221" fill="#4CE6CD"/>
<rect x="130.406" y="54.2783" width="3.62443" height="28.6549" rx="1.81221" fill="#4CE6CD"/>
<rect x="136.625" y="49.7539" width="3.62443" height="37.7038" rx="1.81221" fill="#4CE6CD"/>
<rect x="142.844" y="62.5732" width="3.62443" height="12.0652" rx="1.81221" fill="#4CE6CD"/>
<rect x="149.062" y="55.0322" width="3.62443" height="27.1467" rx="1.81221" fill="#4CE6CD"/>
<rect x="155.281" y="58.0488" width="3.62443" height="21.1141" rx="1.81221" fill="#4CE6CD"/>
<rect x="161.5" y="62.5732" width="3.62443" height="12.0652" rx="1.81221" fill="#4CE6CD"/>
<rect x="167.719" y="54.2783" width="3.62443" height="28.6549" rx="1.81221" fill="#4CE6CD"/>
<rect x="173.938" y="57.2949" width="3.62443" height="22.6223" rx="1.81221" fill="#4CE6CD"/>
<rect x="180.156" y="62.5732" width="3.62443" height="13.5734" rx="1.81221" fill="#4CE6CD"/>
<rect x="186.375" y="65.5889" width="3.62443" height="7.54076" rx="1.81221" fill="#4CE6CD"/>
<rect x="9" y="103" width="5" height="19" fill="#4CE6CD"/>
<path d="M23.29 137.75C22.831 138.695 22.534 139.586 22.372 140.423C22.21 141.26 22.156 142.151 22.156 143.096V145.283H17.566V143.393C17.566 142.259 17.728 141.26 18.052 140.396C18.376 139.532 18.862 138.641 19.51 137.75H23.29ZM29.23 137.75C28.771 138.695 28.474 139.586 28.312 140.423C28.15 141.26 28.096 142.151 28.096 143.096V145.283H23.506V143.393C23.506 142.259 23.668 141.26 23.992 140.396C24.316 139.532 24.802 138.641 25.45 137.75H29.23ZM32.1019 158V137.75H37.5019V158H32.1019ZM47.7577 158V142.205H40.0627V137.75H60.8527V142.205H53.1577V158H47.7577ZM72.4368 150.467L67.5768 149.036C65.6868 148.496 64.3098 147.713 63.4188 146.741C62.5007 145.769 62.0688 144.608 62.0688 143.258C62.0688 141.584 62.6628 140.234 63.8508 139.235C65.0388 138.263 66.7128 137.75 68.8728 137.75H79.2678V142.205H68.8458C68.2518 142.205 67.8467 142.313 67.6308 142.529C67.3878 142.745 67.2798 142.961 67.2798 143.204C67.2798 143.528 67.3878 143.798 67.6038 144.014C67.8198 144.23 68.1978 144.392 68.7108 144.527L73.6518 145.958C75.7308 146.579 77.2968 147.335 78.3498 148.226C79.4028 149.117 79.9428 150.359 79.9428 151.952C79.9428 152.789 79.7808 153.572 79.4568 154.301C79.1328 155.057 78.6738 155.678 78.0258 156.218C77.3778 156.758 76.5678 157.19 75.5957 157.514C74.6238 157.838 73.4628 158 72.1668 158H62.6088V153.545H72.9768C73.6518 153.545 74.1378 153.41 74.4078 153.14C74.6778 152.87 74.8128 152.573 74.8128 152.195C74.8128 151.763 74.6238 151.439 74.2998 151.223C73.9758 151.007 73.3548 150.737 72.4368 150.467ZM89.2628 158V137.75H94.6628V145.418H104.248V137.75H109.648V158H104.248V150.143H94.6628V158H89.2628ZM129.675 158L128.082 153.761H118.605L116.985 158H111.531L118.254 141.665C118.767 140.396 119.415 139.37 120.171 138.587C120.927 137.831 122.007 137.426 123.357 137.426C124.761 137.426 125.841 137.831 126.651 138.587C127.461 139.343 128.109 140.369 128.622 141.611L135.291 158H129.675ZM122.898 142.637L120.225 149.576H126.489L123.87 142.637C123.816 142.529 123.735 142.421 123.681 142.313C123.627 142.205 123.519 142.151 123.384 142.151C123.249 142.151 123.141 142.205 123.087 142.286C123.006 142.394 122.952 142.502 122.898 142.637ZM136.497 158L137.766 143.528C137.928 141.368 138.522 139.829 139.521 138.857C140.52 137.912 141.789 137.426 143.328 137.426C144.948 137.426 146.244 137.939 147.216 138.938C148.188 139.937 148.809 141.287 149.079 143.015L150.672 153.086C150.699 153.302 150.753 153.464 150.834 153.572C150.915 153.68 151.05 153.734 151.239 153.734C151.401 153.734 151.536 153.68 151.644 153.545C151.725 153.437 151.779 153.248 151.806 153.032L153.345 142.988C153.588 141.287 154.182 139.937 155.154 138.938C156.126 137.939 157.422 137.426 159.042 137.426C160.743 137.426 162.012 137.912 162.849 138.884C163.686 139.856 164.199 141.395 164.388 143.528L165.657 158H160.446L159.366 142.745C159.339 142.583 159.312 142.421 159.258 142.286C159.204 142.178 159.096 142.097 158.934 142.097C158.772 142.097 158.664 142.178 158.583 142.286C158.475 142.394 158.421 142.529 158.421 142.691L156.612 153.518C156.369 154.976 155.775 156.137 154.857 157.001C153.939 157.892 152.724 158.324 151.212 158.324C149.646 158.324 148.377 157.892 147.459 156.974C146.514 156.056 145.92 154.895 145.704 153.491L143.814 142.718C143.76 142.529 143.706 142.367 143.625 142.259C143.517 142.151 143.409 142.097 143.274 142.097C143.085 142.097 142.95 142.178 142.896 142.286C142.842 142.421 142.788 142.583 142.788 142.772L141.708 158H136.497ZM167.821 158L169.09 143.528C169.252 141.368 169.846 139.829 170.845 138.857C171.844 137.912 173.113 137.426 174.652 137.426C176.272 137.426 177.568 137.939 178.54 138.938C179.512 139.937 180.133 141.287 180.403 143.015L181.996 153.086C182.023 153.302 182.077 153.464 182.158 153.572C182.239 153.68 182.374 153.734 182.563 153.734C182.725 153.734 182.86 153.68 182.968 153.545C183.049 153.437 183.103 153.248 183.13 153.032L184.669 142.988C184.912 141.287 185.506 139.937 186.478 138.938C187.45 137.939 188.746 137.426 190.366 137.426C192.067 137.426 193.336 137.912 194.173 138.884C195.01 139.856 195.523 141.395 195.712 143.528L196.981 158H191.77L190.69 142.745C190.663 142.583 190.636 142.421 190.582 142.286C190.528 142.178 190.42 142.097 190.258 142.097C190.096 142.097 189.988 142.178 189.907 142.286C189.799 142.394 189.745 142.529 189.745 142.691L187.936 153.518C187.693 154.976 187.099 156.137 186.181 157.001C185.263 157.892 184.048 158.324 182.536 158.324C180.97 158.324 179.701 157.892 178.783 156.974C177.838 156.056 177.244 154.895 177.028 153.491L175.138 142.718C175.084 142.529 175.03 142.367 174.949 142.259C174.841 142.151 174.733 142.097 174.598 142.097C174.409 142.097 174.274 142.178 174.22 142.286C174.166 142.421 174.112 142.583 174.112 142.772L173.032 158H167.821ZM199.82 158V137.75H216.722V142.205H205.085V145.715H216.722V150.035H205.085V153.545H216.722V158H199.82ZM224.338 158H219.208V147.902C219.208 147.416 219.37 147.011 219.694 146.687C220.018 146.39 220.396 146.228 220.855 146.228H230.926C231.655 146.228 232.168 146.12 232.438 145.877C232.708 145.661 232.87 145.121 232.87 144.257V144.122C232.87 143.339 232.708 142.826 232.438 142.583C232.168 142.34 231.655 142.205 230.926 142.205H213.808V137.75H230.791C231.763 137.75 232.708 137.831 233.626 137.993C234.517 138.155 235.3 138.452 235.948 138.83C236.596 139.235 237.136 139.775 237.541 140.45C237.919 141.125 238.135 141.962 238.135 142.988V144.257C238.135 145.337 237.946 146.255 237.622 146.957C237.271 147.659 236.785 148.226 236.164 148.631C235.543 149.063 234.787 149.36 233.896 149.522C232.978 149.684 232.006 149.765 230.926 149.765H230.629L238.108 158H231.79L224.338 149.873V158ZM24.37 190V174.205H16.675V169.75H37.465V174.205H29.77V190H24.37ZM40.0384 190V169.75H45.4384V190H40.0384ZM48.4042 190L49.6732 175.528C49.8352 173.368 50.4292 171.829 51.4282 170.857C52.4272 169.912 53.6962 169.426 55.2352 169.426C56.8552 169.426 58.1512 169.939 59.1232 170.938C60.0952 171.937 60.7162 173.287 60.9862 175.015L62.5792 185.086C62.6062 185.302 62.6602 185.464 62.7412 185.572C62.8222 185.68 62.9572 185.734 63.1462 185.734C63.3082 185.734 63.4432 185.68 63.5512 185.545C63.6322 185.437 63.6862 185.248 63.7132 185.032L65.2522 174.988C65.4952 173.287 66.0892 171.937 67.0612 170.938C68.0332 169.939 69.3292 169.426 70.9492 169.426C72.6502 169.426 73.9192 169.912 74.7562 170.884C75.5932 171.856 76.1062 173.395 76.2952 175.528L77.5642 190H72.3532L71.2732 174.745C71.2462 174.583 71.2192 174.421 71.1652 174.286C71.1112 174.178 71.0032 174.097 70.8412 174.097C70.6792 174.097 70.5712 174.178 70.4902 174.286C70.3822 174.394 70.3282 174.529 70.3282 174.691L68.5192 185.518C68.2762 186.976 67.6822 188.137 66.7642 189.001C65.8462 189.892 64.6312 190.324 63.1192 190.324C61.5532 190.324 60.2842 189.892 59.3662 188.974C58.4212 188.056 57.8272 186.895 57.6112 185.491L55.7212 174.718C55.6672 174.529 55.6132 174.367 55.5322 174.259C55.4242 174.151 55.3162 174.097 55.1812 174.097C54.9922 174.097 54.8572 174.178 54.8032 174.286C54.7492 174.421 54.6952 174.583 54.6952 174.772L53.6152 190H48.4042ZM80.4034 190V169.75H97.3054V174.205H85.6684V177.715H97.3054V182.035H85.6684V185.545H97.3054V190H80.4034ZM105.758 177.283C106.19 176.365 106.487 175.474 106.649 174.637C106.811 173.8 106.892 172.909 106.892 171.937V169.75H111.482V171.64C111.482 172.774 111.32 173.8 110.996 174.664C110.672 175.528 110.186 176.419 109.538 177.283H105.758ZM99.8177 177.283C100.25 176.365 100.547 175.474 100.709 174.637C100.871 173.8 100.952 172.909 100.952 171.937V169.75H105.542V171.64C105.542 172.774 105.38 173.8 105.056 174.664C104.732 175.528 104.246 176.419 103.598 177.283H99.8177Z" fill="#4CE6CD"/>
</g>
<defs>
<linearGradient id="paint0_linear_85_2" x1="9" y1="69" x2="263" y2="69" gradientUnits="userSpaceOnUse">
<stop stop-color="#222222"/>
<stop offset="0.51"/>
<stop offset="1" stop-color="#222222"/>
</linearGradient>
<linearGradient id="paint1_linear_85_2" x1="9" y1="185.5" x2="263" y2="185.5" gradientUnits="userSpaceOnUse">
<stop stop-color="#222222"/>
<stop offset="0.51"/>
<stop offset="1" stop-color="#222222"/>
</linearGradient>
</defs>
</svg>
